<svg xmlns="http://www.w3.org/2000/svg" viewBox="0 0 77 24" fill="none"><g clip-path="url(#clip0_2751_4580)"><path d="M-0.000854492 15.9839C-0.000854492 11.59 3.09216 8.69727 6.68615 8.69727C8.73364 8.69727 10.3074 9.67247 11.0534 10.6696L11.3856 9.02599H14.3152V22.9309H11.4672L11.0534 21.2325C10.3891 22.2022 8.84255 23.2596 6.60447 23.2596C2.90157 23.2761 -0.000854492 20.2135 -0.000854492 15.9839ZM11.2767 15.9839C11.2767 13.3432 9.58857 11.5626 7.29604 11.5626C4.97084 11.5626 3.28819 13.398 3.28819 15.9839C3.28819 18.5699 4.97628 20.4052 7.29604 20.4052C9.58857 20.4107 11.2767 18.6301 11.2767 15.9839Z" fill="#4B27DC"/><path d="M16.87 1.48145H20.1046V10.8719C20.8234 9.64469 22.3699 8.70236 24.3629 8.70236C27.5431 8.70236 29.449 10.7623 29.449 14.4002V22.9415H26.2144V15.0686C26.2144 12.8442 25.1362 11.617 23.3392 11.617C21.5966 11.617 20.1046 13.1456 20.1046 16.3999V22.936H16.87V1.48145Z" fill="#4B27DC"/><path d="M37.9537 23.2755C33.6953 23.2755 31.0162 20.2184 31.0162 16.0162C31.0162 11.7319 33.8097 8.70215 37.9264 8.70215C42.408 8.70215 44.7278 11.9017 44.7278 15.5998C44.7278 15.9888 44.7006 16.4874 44.6189 16.8544H34.1963C34.5285 19.3582 36.1022 20.4156 38.1497 20.4156C39.8922 20.4156 40.9432 19.5554 41.5803 18.3282L44.2595 19.5828C43.2358 21.7688 41.1066 23.2755 37.9537 23.2755ZM34.2508 14.5424H41.466C41.2155 12.5098 39.7779 11.3977 37.9264 11.3977C36.2111 11.3977 34.6646 12.3126 34.2508 14.5424Z" fill="#4B27DC"/><path d="M46.0346 15.9839C46.0346 11.59 49.1276 8.69727 52.7216 8.69727C54.7691 8.69727 56.3428 9.67247 57.0889 10.6696L57.421 9.02599H60.3507V22.9309H57.5027L57.0889 21.2325C56.4245 22.2022 54.878 23.2596 52.6399 23.2596C48.937 23.2761 46.0346 20.2135 46.0346 15.9839ZM57.3121 15.9839C57.3121 13.3432 55.624 11.5626 53.3315 11.5626C51.0063 11.5626 49.3237 13.398 49.3237 15.9839C49.3237 18.5699 51.0117 20.4052 53.3315 20.4052C55.624 20.4107 57.3121 18.6301 57.3121 15.9839Z" fill="#4B27DC"/><path d="M68.6227 23.2757C64.8925 23.2757 61.9629 20.3007 61.9629 15.989C61.9629 11.5129 65.0831 8.70236 68.737 8.70236C70.839 8.70236 72.3582 9.73235 73.0498 10.7623V1.48145H76.2844V22.9415H73.5181L73.1587 21.0513C72.4127 22.2128 70.6974 23.2757 68.6227 23.2757ZM65.2247 15.9835C65.2247 18.5421 66.94 20.3774 69.2598 20.3774C71.5523 20.3774 73.2404 18.5969 73.2404 15.9835C73.2404 13.3702 71.5523 11.5896 69.2598 11.5896C66.94 11.5896 65.2247 13.4305 65.2247 15.9835Z" fill="#4B27DC"/></g><defs><clipPath id="clip0_2751_4580"><rect width="76.2857" height="24" fill="white"/></clipPath></defs></svg>