<svg width="1080" height="1080" viewBox="0 0 1080 1080" fill="none" xmlns="http://www.w3.org/2000/svg">
<g filter="url(#filter0_f_6_40)">
<path d="M540 840C705.685 840 840 705.685 840 540C840 374.315 705.685 240 540 240C374.315 240 240 374.315 240 540C240 705.685 374.315 840 540 840Z" fill="url(#paint0_radial_6_40)"/>
</g>
<g filter="url(#filter1_f_6_40)">
<path d="M482.807 509.119C483.134 512.552 483.045 516.012 482.542 519.417C482.349 520.731 481.25 521.704 479.927 521.823L402.174 528.798C400.842 528.918 399.581 528.144 399.164 526.874C398.116 523.678 397.444 520.362 397.164 516.996C396.169 505.334 399.725 493.743 407.052 484.774C414.378 475.805 424.874 470.191 436.231 469.169C447.588 468.146 458.876 471.798 467.61 479.322C476.345 486.845 481.811 497.623 482.807 509.286V509.119Z" fill="#1A1A1A"/>
</g>
<g filter="url(#filter2_f_6_40)">
<path d="M447 501C453.075 501 458 496.075 458 490C458 483.925 453.075 479 447 479C440.925 479 436 483.925 436 490C436 496.075 440.925 501 447 501Z" fill="white"/>
</g>
<g filter="url(#filter3_f_6_40)">
<path d="M682.704 517.294C682.421 520.557 681.764 523.773 680.745 526.879C680.329 528.147 679.072 528.92 677.743 528.803L600.066 522.001C598.746 521.885 597.646 520.918 597.45 519.608C596.955 516.302 596.867 512.945 597.193 509.613C597.517 503.859 598.991 498.229 601.527 493.057C604.063 487.885 607.609 483.276 611.955 479.503C616.301 475.731 621.359 472.872 626.828 471.095C632.297 469.319 638.067 468.662 643.794 469.163C649.521 469.664 655.09 471.313 660.17 474.011C665.25 476.71 669.737 480.404 673.366 484.874C676.994 489.344 679.691 494.499 681.295 500.033C682.899 505.567 683.378 511.368 682.704 517.091V517.294Z" fill="#1A1A1A"/>
</g>
<g filter="url(#filter4_f_6_40)">
<path d="M651 505C657.075 505 662 500.075 662 494C662 487.925 657.075 483 651 483C644.925 483 640 487.925 640 494C640 500.075 644.925 505 651 505Z" fill="white"/>
</g>
<g filter="url(#filter5_f_6_40)">
<path d="M722 700C730.701 700 739.206 697.42 746.441 692.588C753.675 687.755 759.315 680.885 762.647 672.848C765.978 664.811 766.852 655.966 765.158 647.432C763.463 638.898 759.277 631.058 753.128 624.903C746.979 618.747 739.143 614.553 730.611 612.851C722.078 611.148 713.233 612.013 705.192 615.337C697.151 618.661 690.276 624.293 685.436 631.523C680.596 638.753 678.009 647.256 678 655.957C678 667.63 682.634 678.826 690.885 687.085C699.135 695.343 710.326 699.989 722 700V700Z" stroke="#FF1B3F" stroke-width="9" stroke-miterlimit="10"/>
</g>
<g filter="url(#filter6_f_6_40)">
<path d="M358 700C366.701 700 375.206 697.42 382.441 692.588C389.675 687.755 395.315 680.885 398.647 672.848C401.978 664.811 402.852 655.966 401.158 647.432C399.463 638.898 395.277 631.058 389.128 624.903C382.979 618.747 375.143 614.553 366.611 612.851C358.078 611.148 349.233 612.013 341.192 615.337C333.151 618.661 326.276 624.293 321.436 631.523C316.596 638.753 314.009 647.256 314 655.957C314 667.63 318.634 678.826 326.885 687.085C335.135 695.343 346.326 699.989 358 700V700Z" stroke="#FF1B3F" stroke-width="9" stroke-miterlimit="10"/>
</g>
<g filter="url(#filter7_f_6_40)">
<path d="M722.5 682C727.543 682 732.474 680.475 736.667 677.618C740.861 674.761 744.129 670.701 746.059 665.95C747.989 661.199 748.494 655.971 747.51 650.928C746.526 645.884 744.097 641.251 740.531 637.615C736.965 633.979 732.421 631.503 727.475 630.5C722.528 629.496 717.401 630.011 712.742 631.979C708.082 633.947 704.099 637.28 701.297 641.555C698.496 645.831 697 650.858 697 656C697 662.896 699.687 669.509 704.469 674.385C709.251 679.261 715.737 682 722.5 682Z" stroke="#FF1B3F" stroke-width="8" stroke-miterlimit="10"/>
</g>
<g filter="url(#filter8_f_6_40)">
<path d="M358.5 682C363.543 682 368.474 680.475 372.667 677.618C376.861 674.761 380.129 670.701 382.059 665.95C383.989 661.199 384.494 655.971 383.51 650.928C382.526 645.884 380.097 641.251 376.531 637.615C372.965 633.979 368.421 631.503 363.475 630.5C358.528 629.496 353.401 630.011 348.742 631.979C344.082 633.947 340.099 637.28 337.297 641.555C334.496 645.831 333 650.858 333 656C333 662.896 335.687 669.509 340.469 674.385C345.251 679.261 351.737 682 358.5 682Z" stroke="#FF1B3F" stroke-width="8" stroke-miterlimit="10"/>
</g>
<g filter="url(#filter9_f_6_40)">
<path d="M722 718C756.242 718 784 690.242 784 656C784 621.758 756.242 594 722 594C687.758 594 660 621.758 660 656C660 690.242 687.758 718 722 718Z" stroke="#FF1B3F" stroke-width="9" stroke-miterlimit="10"/>
</g>
<g filter="url(#filter10_f_6_40)">
<path d="M358 718C392.242 718 420 690.242 420 656C420 621.758 392.242 594 358 594C323.758 594 296 621.758 296 656C296 690.242 323.758 718 358 718Z" stroke="#FF1B3F" stroke-width="9" stroke-miterlimit="10"/>
</g>
<g filter="url(#filter11_ddf_6_40)">
<path d="M467.84 588C467.48 586.96 468.6 586.16 469.2 587.04C477.2 599.52 500.2 628.6 539.6 628.6C579 628.6 600.64 599.72 608.28 587.16C608.8 586.28 609.96 587.16 609.64 588.08C604.64 604.08 587.4 644.56 539.6 644.56C491.8 644.56 473.4 604 467.84 588Z" fill="#AB0C1F"/>
</g>
<g filter="url(#filter12_f_6_40)">
<path d="M540 840C705.685 840 840 705.685 840 540C840 374.315 705.685 240 540 240C374.315 240 240 374.315 240 540C240 705.685 374.315 840 540 840Z" fill="url(#paint1_radial_6_40)"/>
</g>
<defs>
<filter id="filter0_f_6_40" x="232" y="232" width="616" height="616" filterUnits="userSpaceOnUse" color-interpolation-filters="sRGB">
<feFlood flood-opacity="0" result="BackgroundImageFix"/>
<feBlend mode="normal" in="SourceGraphic" in2="BackgroundImageFix" result="shape"/>
<feGaussianBlur stdDeviation="4" result="effect1_foregroundBlur_6_40"/>
</filter>
<filter id="filter1_f_6_40" x="395" y="467" width="90" height="63.8103" filterUnits="userSpaceOnUse" color-interpolation-filters="sRGB">
<feFlood flood-opacity="0" result="BackgroundImageFix"/>
<feBlend mode="normal" in="SourceGraphic" in2="BackgroundImageFix" result="shape"/>
<feGaussianBlur stdDeviation="1" result="effect1_foregroundBlur_6_40"/>
</filter>
<filter id="filter2_f_6_40" x="434" y="477" width="26" height="26" filterUnits="userSpaceOnUse" color-interpolation-filters="sRGB">
<feFlood flood-opacity="0" result="BackgroundImageFix"/>
<feBlend mode="normal" in="SourceGraphic" in2="BackgroundImageFix" result="shape"/>
<feGaussianBlur stdDeviation="1" result="effect1_foregroundBlur_6_40"/>
</filter>
<filter id="filter3_f_6_40" x="595" y="467" width="90" height="63.8149" filterUnits="userSpaceOnUse" color-interpolation-filters="sRGB">
<feFlood flood-opacity="0" result="BackgroundImageFix"/>
<feBlend mode="normal" in="SourceGraphic" in2="BackgroundImageFix" result="shape"/>
<feGaussianBlur stdDeviation="1" result="effect1_foregroundBlur_6_40"/>
</filter>
<filter id="filter4_f_6_40" x="638" y="481" width="26" height="26" filterUnits="userSpaceOnUse" color-interpolation-filters="sRGB">
<feFlood flood-opacity="0" result="BackgroundImageFix"/>
<feBlend mode="normal" in="SourceGraphic" in2="BackgroundImageFix" result="shape"/>
<feGaussianBlur stdDeviation="1" result="effect1_foregroundBlur_6_40"/>
</filter>
<filter id="filter5_f_6_40" x="671.5" y="605.5" width="101" height="101" filterUnits="userSpaceOnUse" color-interpolation-filters="sRGB">
<feFlood flood-opacity="0" result="BackgroundImageFix"/>
<feBlend mode="normal" in="SourceGraphic" in2="BackgroundImageFix" result="shape"/>
<feGaussianBlur stdDeviation="1" result="effect1_foregroundBlur_6_40"/>
</filter>
<filter id="filter6_f_6_40" x="307.5" y="605.5" width="101" height="101" filterUnits="userSpaceOnUse" color-interpolation-filters="sRGB">
<feFlood flood-opacity="0" result="BackgroundImageFix"/>
<feBlend mode="normal" in="SourceGraphic" in2="BackgroundImageFix" result="shape"/>
<feGaussianBlur stdDeviation="1" result="effect1_foregroundBlur_6_40"/>
</filter>
<filter id="filter7_f_6_40" x="691" y="624" width="63" height="64" filterUnits="userSpaceOnUse" color-interpolation-filters="sRGB">
<feFlood flood-opacity="0" result="BackgroundImageFix"/>
<feBlend mode="normal" in="SourceGraphic" in2="BackgroundImageFix" result="shape"/>
<feGaussianBlur stdDeviation="1" result="effect1_foregroundBlur_6_40"/>
</filter>
<filter id="filter8_f_6_40" x="327" y="624" width="63" height="64" filterUnits="userSpaceOnUse" color-interpolation-filters="sRGB">
<feFlood flood-opacity="0" result="BackgroundImageFix"/>
<feBlend mode="normal" in="SourceGraphic" in2="BackgroundImageFix" result="shape"/>
<feGaussianBlur stdDeviation="1" result="effect1_foregroundBlur_6_40"/>
</filter>
<filter id="filter9_f_6_40" x="653.5" y="587.5" width="137" height="137" filterUnits="userSpaceOnUse" color-interpolation-filters="sRGB">
<feFlood flood-opacity="0" result="BackgroundImageFix"/>
<feBlend mode="normal" in="SourceGraphic" in2="BackgroundImageFix" result="shape"/>
<feGaussianBlur stdDeviation="1" result="effect1_foregroundBlur_6_40"/>
</filter>
<filter id="filter10_f_6_40" x="289.5" y="587.5" width="137" height="137" filterUnits="userSpaceOnUse" color-interpolation-filters="sRGB">
<feFlood flood-opacity="0" result="BackgroundImageFix"/>
<feBlend mode="normal" in="SourceGraphic" in2="BackgroundImageFix" result="shape"/>
<feGaussianBlur stdDeviation="1" result="effect1_foregroundBlur_6_40"/>
</filter>
<filter id="filter11_ddf_6_40" x="461.77" y="575.663" width="153.925" height="78.8973" filterUnits="userSpaceOnUse" color-interpolation-filters="sRGB">
<feFlood flood-opacity="0" result="BackgroundImageFix"/>
<feColorMatrix in="SourceAlpha" type="matrix" values="0 0 0 0 0 0 0 0 0 0 0 0 0 0 0 0 0 0 127 0" result="hardAlpha"/>
<feOffset dy="-5"/>
<feGaussianBlur stdDeviation="3"/>
<feComposite in2="hardAlpha" operator="out"/>
<feColorMatrix type="matrix" values="0 0 0 0 0.744893 0 0 0 0 0.777636 0 0 0 0 0.82526 0 0 0 1 0"/>
<feBlend mode="normal" in2="BackgroundImageFix" result="effect1_dropShadow_6_40"/>
<feColorMatrix in="SourceAlpha" type="matrix" values="0 0 0 0 0 0 0 0 0 0 0 0 0 0 0 0 0 0 127 0" result="hardAlpha"/>
<feOffset dy="4"/>
<feGaussianBlur stdDeviation="3"/>
<feComposite in2="hardAlpha" operator="out"/>
<feColorMatrix type="matrix" values="0 0 0 0 1 0 0 0 0 1 0 0 0 0 1 0 0 0 0.66 0"/>
<feBlend mode="normal" in2="effect1_dropShadow_6_40" result="effect2_dropShadow_6_40"/>
<feBlend mode="normal" in="SourceGraphic" in2="effect2_dropShadow_6_40" result="shape"/>
<feGaussianBlur stdDeviation="1" result="effect3_foregroundBlur_6_40"/>
</filter>
<filter id="filter12_f_6_40" x="232" y="232" width="616" height="616" filterUnits="userSpaceOnUse" color-interpolation-filters="sRGB">
<feFlood flood-opacity="0" result="BackgroundImageFix"/>
<feBlend mode="normal" in="SourceGraphic" in2="BackgroundImageFix" result="shape"/>
<feGaussianBlur stdDeviation="4" result="effect1_foregroundBlur_6_40"/>
</filter>
<radialGradient id="paint0_radial_6_40" cx="0" cy="0" r="1" gradientUnits="userSpaceOnUse" gradientTransform="translate(412.5 340) rotate(67.0113) scale(483.933)">
<stop stop-color="#FCFCFF"/>
<stop offset="0.165566" stop-color="#EAEBF3"/>
<stop offset="0.657919" stop-color="#DDDDE9"/>
<stop offset="1" stop-color="#AFB0CB"/>
</radialGradient>
<radialGradient id="paint1_radial_6_40" cx="0" cy="0" r="1" gradientUnits="userSpaceOnUse" gradientTransform="translate(412.5 340) rotate(67.0113) scale(483.933)">
<stop stop-color="#FCFCFF" stop-opacity="0"/>
<stop offset="0.486268" stop-color="#DDDDE9" stop-opacity="0"/>
<stop offset="1" stop-opacity="0.38"/>
</radialGradient>
</defs>
</svg>
