<svg width="258" height="209" viewBox="0 0 258 209" fill="none" xmlns="http://www.w3.org/2000/svg">
<path d="M95.5074 0H42.067C37.4174 0 33.6482 3.7692 33.6482 8.4188V38.6656C33.6482 43.3156 37.4174 47.0846 42.067 47.0846H95.5074C100.157 47.0846 103.926 43.3156 103.926 38.6656V8.4188C103.926 3.7692 100.157 0 95.5074 0Z" fill="#7360DD"/>
<path d="M67.2339 57.5996V42.8396H52.4592L67.2339 57.5996Z" fill="#7360DD"/>
<path d="M52.8053 28.3226C55.4443 28.3226 57.5836 26.1836 57.5836 23.5446C57.5836 20.9056 55.4443 18.7656 52.8053 18.7656C50.1664 18.7656 48.0271 20.9056 48.0271 23.5446C48.0271 26.1836 50.1664 28.3226 52.8053 28.3226Z" fill="#EEEAFD"/>
<path d="M68.7781 28.3226C71.4171 28.3226 73.5564 26.1836 73.5564 23.5446C73.5564 20.9056 71.4171 18.7656 68.7781 18.7656C66.1391 18.7656 63.9998 20.9056 63.9998 23.5446C63.9998 26.1836 66.1391 28.3226 68.7781 28.3226Z" fill="#EEEAFD"/>
<path d="M84.7532 28.3226C87.3925 28.3226 89.5315 26.1836 89.5315 23.5446C89.5315 20.9056 87.3925 18.7656 84.7532 18.7656C82.1142 18.7656 79.9749 20.9056 79.9749 23.5446C79.9749 26.1836 82.1142 28.3226 84.7532 28.3226Z" fill="#EEEAFD"/>
<path d="M229.265 94.6456L238.822 91.4176C240.19 90.9556 241.686 91.0566 242.981 91.6966C244.275 92.3376 245.262 93.4666 245.724 94.8346L249.466 105.916C249.926 107.291 249.822 108.792 249.177 110.09C248.532 111.388 247.398 112.378 246.025 112.842L236.525 116.05C235.149 116.514 233.645 116.413 232.343 115.769C231.042 115.125 230.049 113.99 229.585 112.614L225.848 101.547C225.386 100.179 225.486 98.6826 226.127 97.3886C226.768 96.0946 227.896 95.1076 229.265 94.6456Z" fill="#FCD477"/>
<path d="M228.901 105.643L245.759 99.9496C246.769 99.6086 247.873 99.6825 248.828 100.156C249.784 100.629 250.512 101.462 250.853 102.472L254.862 114.343C255.377 115.868 255.265 117.535 254.551 118.977C253.837 120.419 252.58 121.518 251.055 122.033L238.12 126.401C236.596 126.916 234.929 126.804 233.487 126.09C232.045 125.376 230.945 124.119 230.43 122.594L226.421 110.723C226.08 109.713 226.154 108.609 226.628 107.653C227.101 106.698 227.934 105.969 228.944 105.628L228.901 105.643Z" fill="#CFBBEC"/>
<path d="M226.893 102.328C243.707 102.328 257.338 88.6967 257.338 71.8837C257.338 55.0697 243.707 41.4387 226.893 41.4387C210.079 41.4387 196.449 55.0697 196.449 71.8837C196.449 88.6967 210.079 102.328 226.893 102.328Z" fill="#FCD477"/>
<path opacity="0.4" d="M247.794 109.398L232.976 114.402C231.564 114.879 230.805 116.411 231.282 117.824L231.287 117.839C231.764 119.251 233.296 120.01 234.709 119.533L249.526 114.529C250.939 114.052 251.698 112.52 251.221 111.107L251.216 111.093C250.739 109.68 249.207 108.921 247.794 109.398Z" fill="white"/>
<path d="M212.288 72.9597C217.172 72.9597 221.131 69.0007 221.131 64.1167C221.131 59.2327 217.172 55.2727 212.288 55.2727C207.403 55.2727 203.444 59.2327 203.444 64.1167C203.444 69.0007 207.403 72.9597 212.288 72.9597Z" fill="#FFF9EE"/>
<path d="M201.054 208.039L196.503 203.291C195.312 201.983 193.861 200.939 192.243 200.224C190.624 199.509 188.875 199.14 187.106 199.14C185.337 199.14 183.587 199.509 181.969 200.224C180.351 200.939 178.9 201.983 177.709 203.291C176.521 204.608 175.07 205.66 173.45 206.381C171.83 207.101 170.077 207.473 168.304 207.473C166.531 207.473 164.777 207.101 163.157 206.381C161.537 205.66 160.087 204.608 158.899 203.291C157.709 201.981 156.258 200.935 154.64 200.219C153.022 199.502 151.271 199.132 149.502 199.132C147.732 199.132 145.982 199.502 144.363 200.219C142.745 200.935 141.294 201.981 140.104 203.291C138.916 204.606 137.464 205.656 135.844 206.375C134.225 207.094 132.472 207.466 130.7 207.466C128.927 207.466 127.175 207.094 125.555 206.375C123.935 205.656 122.484 204.606 121.295 203.291C120.103 201.981 118.651 200.934 117.032 200.218C115.412 199.502 113.661 199.132 111.89 199.132C110.119 199.132 108.368 199.502 106.748 200.218C105.129 200.934 103.677 201.981 102.485 203.291C101.295 204.604 99.8434 205.652 98.2244 206.37C96.6044 207.088 94.8524 207.458 93.0804 207.458C91.3094 207.458 89.5574 207.088 87.9374 206.37C86.3174 205.652 84.866 204.604 83.6758 203.291L82.614 202.184V78.8447H182.047L201.054 208.039Z" fill="#FA6B50"/>
<path d="M188.161 136.429C188.161 136.429 196.307 113.584 196.762 112.416C197.722 109.682 197.84 106.722 197.099 103.92C196.358 101.118 194.792 98.6025 192.605 96.7005L179.818 85.1875L164.649 94.6835L179.211 107.031L167.546 124.946L188.161 136.429Z" fill="#D2ADE6"/>
<path d="M185.672 127.13C185.672 132.621 185.566 137.066 191.042 137.066C193.677 137.066 196.205 136.019 198.068 134.156C199.931 132.292 200.978 129.765 200.978 127.13C200.978 124.495 199.931 121.968 198.068 120.104C196.205 118.241 193.677 117.194 191.042 117.194C185.566 117.194 185.672 121.639 185.672 127.13Z" fill="#D2ADE6"/>
<path d="M67.748 136.429C67.748 136.429 59.587 113.584 59.1471 112.416C58.1848 109.683 58.0651 106.724 58.8034 103.923C59.5417 101.121 61.1041 98.6045 63.2883 96.7005L76.091 85.1875L91.2604 94.6835L76.6978 107.031L88.3784 124.946L67.748 136.429Z" fill="#D2ADE6"/>
<path d="M183.442 87.5047C183.442 88.4457 183.442 165.565 183.442 165.565C183.446 170.223 181.851 174.742 178.923 178.366C175.996 181.99 171.913 184.499 167.358 185.474C162.802 186.449 158.05 185.831 153.896 183.723C149.741 181.615 146.436 178.145 144.533 173.893C142.954 177.218 140.464 180.028 137.352 181.996C134.24 183.963 130.634 185.007 126.952 185.007C123.27 185.007 119.664 183.963 116.552 181.996C113.44 180.028 110.95 177.218 109.371 173.893C107.468 178.145 104.163 181.615 100.009 183.723C95.8544 185.831 91.1024 186.449 86.5474 185.474C81.9918 184.499 77.909 181.99 74.9814 178.366C72.0538 174.742 70.4588 170.223 70.4629 165.565C70.4629 165.565 70.4629 88.4457 70.4629 87.5047C70.4629 53.3597 96.0684 28.8767 127.058 28.8767C158.049 28.8767 183.442 53.3137 183.442 87.5047Z" fill="#E1BFF7"/>
<path d="M134.308 89.2317C133.733 90.7737 132.745 92.1277 131.452 93.1447C130.158 94.1627 128.61 94.8037 126.976 94.9997C125.342 95.1957 123.685 94.9377 122.188 94.2547C120.691 93.5717 119.41 92.4897 118.487 91.1277" stroke="#491249" stroke-width="3.03381" stroke-linecap="round" stroke-linejoin="round"/>
<path d="M108.036 87.5816C114.595 87.5816 119.913 82.2647 119.913 75.7047C119.913 69.1447 114.595 63.8276 108.036 63.8276C101.476 63.8276 96.1584 69.1447 96.1584 75.7047C96.1584 82.2647 101.476 87.5816 108.036 87.5816Z" fill="white"/>
<path d="M108.035 83.2157C112.182 83.2157 115.543 79.8537 115.543 75.7067C115.543 71.5597 112.182 68.1987 108.035 68.1987C103.888 68.1987 100.526 71.5597 100.526 75.7067C100.526 79.8537 103.888 83.2157 108.035 83.2157Z" fill="#491249"/>
<path d="M145.64 87.5816C152.2 87.5816 157.518 82.2647 157.518 75.7047C157.518 69.1447 152.2 63.8276 145.64 63.8276C139.08 63.8276 133.763 69.1447 133.763 75.7047C133.763 82.2647 139.08 87.5816 145.64 87.5816Z" fill="white"/>
<path d="M145.639 83.2157C149.786 83.2157 153.148 79.8537 153.148 75.7067C153.148 71.5597 149.786 68.1987 145.639 68.1987C141.492 68.1987 138.13 71.5597 138.13 75.7067C138.13 79.8537 141.492 83.2157 145.639 83.2157Z" fill="#491249"/>
<path d="M126.206 85.1825C127.295 85.1825 128.178 84.2995 128.178 83.2105C128.178 82.1215 127.295 81.2385 126.206 81.2385C125.117 81.2385 124.234 82.1215 124.234 83.2105C124.234 84.2995 125.117 85.1825 126.206 85.1825Z" fill="#491249"/>
<path d="M183.381 143.483C183.382 147.411 182.247 151.255 180.111 154.551C177.976 157.847 174.932 160.454 171.347 162.058C167.762 163.662 163.789 164.194 159.909 163.59C156.028 162.985 152.405 161.271 149.478 158.652C148.087 157.398 146.288 156.688 144.415 156.655C142.542 156.621 140.72 157.266 139.284 158.47C135.798 161.353 131.415 162.931 126.891 162.931C122.367 162.931 117.984 161.353 114.498 158.47C113.062 157.265 111.238 156.621 109.364 156.657C107.49 156.693 105.692 157.408 104.304 158.667C101.377 161.286 97.7545 163.001 93.8745 163.605C89.9935 164.209 86.0205 163.678 82.4359 162.074C78.8509 160.47 75.807 157.862 73.6715 154.566C71.5361 151.27 70.4006 147.426 70.4019 143.498V151.993V165.539C70.3978 170.198 71.9929 174.716 74.9205 178.34C77.8481 181.964 81.9308 184.473 86.4865 185.448C91.0415 186.423 95.7935 185.805 99.9485 183.697C104.102 181.589 107.407 178.119 109.31 173.867C110.889 177.193 113.379 180.002 116.491 181.97C119.603 183.937 123.209 184.981 126.891 184.981C130.573 184.981 134.179 183.937 137.291 181.97C140.403 180.002 142.893 177.193 144.472 173.867C146.375 178.119 149.68 181.589 153.835 183.697C157.989 185.805 162.741 186.423 167.296 185.448C171.852 184.473 175.935 181.964 178.862 178.34C181.79 174.716 183.385 170.198 183.381 165.539V143.483Z" fill="url(#paint0_linear_1_1038)"/>
<path d="M70.2338 127.13C70.2338 132.621 70.34 137.066 64.8488 137.066C62.2137 137.066 59.6865 136.019 57.8232 134.156C55.9599 132.292 54.9131 129.765 54.9131 127.13C54.9131 124.495 55.9599 121.968 57.8232 120.104C59.6865 118.241 62.2137 117.194 64.8488 117.194C70.34 117.194 70.2338 121.639 70.2338 127.13Z" fill="#D2ADE6"/>
<path fill-rule="evenodd" clip-rule="evenodd" d="M153.681 57.8076C153.872 58.9566 153.096 60.0426 151.948 60.2346L138.478 62.4795C137.329 62.6705 136.243 61.8945 136.051 60.7465C135.86 59.5975 136.636 58.5115 137.784 58.3195L151.254 56.0745C152.403 55.8835 153.489 56.6596 153.681 57.8076Z" fill="#031B0D"/>
<path fill-rule="evenodd" clip-rule="evenodd" d="M99.9885 58.3535C100.141 57.1985 101.2 56.3866 102.354 56.5386L115.825 58.3125C116.979 58.4655 117.792 59.5246 117.64 60.6786C117.488 61.8336 116.428 62.6455 115.274 62.4935L101.804 60.7196C100.649 60.5666 99.8365 59.5075 99.9885 58.3535Z" fill="#031B0D"/>
<path d="M25.8588 198.334C39.9835 198.334 51.4338 186.884 51.4338 172.759C51.4338 158.635 39.9835 147.184 25.8588 147.184C11.734 147.184 0.283691 158.635 0.283691 172.759C0.283691 186.884 11.734 198.334 25.8588 198.334Z" fill="#E1BFF7"/>
<path d="M29.6689 143.714C15.1369 141.833 3.00162 153.316 0.316715 167.423C-0.512485 172.874 0.295214 178.449 2.63761 183.441C7.34001 183.911 14.3026 181.469 19.3236 179.3C27.4542 175.675 34.3561 164.753 29.6689 143.714Z" fill="#E1BFF7"/>
<path d="M31.14 129.649C33.6429 135.095 33.3395 158.152 33.3395 158.152C33.2485 158.835 33.1575 159.532 33.0361 160.215C32.8338 161.107 32.5857 161.988 32.2929 162.854C29.5928 168.922 23.7678 166.404 17.6547 163.704C11.5416 161.004 9.67577 152.266 11.5871 148.535L11.7994 148.262C11.8848 148.117 11.9559 147.965 12.0118 147.807C12.3508 146.909 12.5949 145.979 12.7399 145.031C12.9371 143.954 13.104 142.801 13.2102 141.618L13.377 139.843C13.377 139.267 13.377 138.584 13.4984 138.144L12.7854 133.593C12.4105 131.481 12.786 129.304 13.8471 127.44C14.9081 125.576 16.5878 124.141 18.5952 123.385C25.4213 121.094 29.1832 125.402 31.14 129.649Z" fill="#E1BFF7"/>
<path d="M53.5395 192.944C58.1271 191.962 61.0502 187.447 60.0684 182.86C59.0865 178.272 54.5716 175.349 49.984 176.331L28.6836 180.889C24.096 181.871 21.1729 186.386 22.1547 190.974C23.1366 195.561 27.6515 198.484 32.2391 197.503L53.5395 192.944Z" fill="#E1BFF7"/>
<path d="M49.656 160.412C54.2436 159.43 57.1666 154.915 56.1848 150.327C55.203 145.74 50.6881 142.817 46.1005 143.799L29.9916 147.246C25.404 148.228 22.481 152.743 23.4628 157.33C24.4446 161.918 28.9595 164.841 33.5471 163.859L49.656 160.412Z" fill="#E1BFF7"/>
<path d="M55.4404 176.226C60.028 175.244 62.9511 170.729 61.9692 166.141C60.9874 161.554 56.4725 158.631 51.8849 159.613L31.2074 164.038C26.6198 165.02 23.6968 169.535 24.6786 174.122C25.6604 178.71 30.1753 181.633 34.7629 180.651L55.4404 176.226Z" fill="#E1BFF7"/>
<path d="M35.9487 163.02L49.5706 159.971" stroke="#D2ADE6" stroke-width="4.4597" stroke-linecap="round" stroke-linejoin="round"/>
<path d="M37.7075 179.618L51.3293 176.554" stroke="#D2ADE6" stroke-width="4.4597" stroke-linecap="round" stroke-linejoin="round"/>
<defs>
<linearGradient id="paint0_linear_1_1038" x1="126.83" y1="146.35" x2="126.83" y2="210.864" gradientUnits="userSpaceOnUse">
<stop offset="0.02" stop-color="#E1BFF7"/>
<stop offset="0.66" stop-color="#C096E2"/>
</linearGradient>
</defs>
</svg>
