<svg width="288" height="240" viewBox="0 0 288 240" fill="none" xmlns="http://www.w3.org/2000/svg">
<mask id="mask0_1_1033" style="mask-type:luminance" maskUnits="userSpaceOnUse" x="0" y="0" width="289" height="240">
<path d="M288.001 0H0V240H288.001V0Z" fill="white"/>
</mask>
<g mask="url(#mask0_1_1033)">
<g opacity="0.8">
<path fill-rule="evenodd" clip-rule="evenodd" d="M203.419 134.314C203.378 159.469 203.315 197.129 203.315 197.129C203.315 209.325 193.411 219.222 181.204 219.222C172.206 219.222 164.464 213.855 160.977 206.119C157.559 213.298 150.305 218.246 141.865 218.246C133.425 218.246 126.171 213.298 122.753 206.119C119.335 213.855 111.593 219.222 102.525 219.222C90.3181 219.222 80.3437 209.255 80.3437 197.059C80.3437 197.059 80.3125 159.535 80.2918 134.38C73.5912 133.101 61.5112 124.521 61.5112 113.219V112.801V112.592C61.5112 109.874 61.7205 107.225 62.2087 104.716C63.9525 94.6109 69.1141 85.9689 76.9262 80.8109C77.0965 80.7139 77.269 80.6149 77.4432 80.5139C78.2675 80.0389 79.1318 79.5409 79.9953 79.1389H80.065H80.1348C81.3903 78.6509 82.7853 78.3719 84.2501 78.3719C85.8234 78.3719 87.3255 78.6739 88.7018 79.2229C99.4517 60.2729 119.368 48.4009 141.865 48.4009C164.331 48.4479 184.223 60.3029 194.983 79.2119C196.352 78.6699 197.845 78.3719 199.409 78.3719C200.873 78.3719 202.268 78.6509 203.524 79.1389H203.594H203.663C204.527 79.5409 205.39 80.0389 206.215 80.5139L206.218 80.5159C206.391 80.6159 206.563 80.7149 206.732 80.8109C214.614 85.8289 219.706 94.5409 221.52 104.577C222.008 107.156 222.217 109.804 222.217 112.522V112.731V113.149C222.217 124.461 210.117 133.046 203.419 134.314Z" fill="#EEEAFD"/>
<mask id="mask1_1_1033" style="mask-type:luminance" maskUnits="userSpaceOnUse" x="39" y="26" width="206" height="216">
<path d="M244.511 26.4009H39.5112V241.401H244.511V26.4009Z" fill="white"/>
<path fill-rule="evenodd" clip-rule="evenodd" d="M203.419 134.314C203.378 159.469 203.315 197.129 203.315 197.129C203.315 209.325 193.411 219.222 181.204 219.222C172.206 219.222 164.464 213.855 160.977 206.119C157.559 213.298 150.305 218.246 141.865 218.246C133.425 218.246 126.171 213.298 122.753 206.119C119.335 213.855 111.593 219.222 102.525 219.222C90.3181 219.222 80.3437 209.255 80.3437 197.059C80.3437 197.059 80.3125 159.535 80.2918 134.38C73.5912 133.101 61.5112 124.521 61.5112 113.219V112.801V112.592C61.5112 109.874 61.7205 107.225 62.2087 104.716C63.9525 94.6109 69.1141 85.9689 76.9262 80.8109C77.0965 80.7139 77.269 80.6149 77.4432 80.5139C78.2675 80.0389 79.1318 79.5409 79.9953 79.1389H80.065H80.1348C81.3903 78.6509 82.7853 78.3719 84.2501 78.3719C85.8234 78.3719 87.3255 78.6739 88.7018 79.2229C99.4517 60.2729 119.368 48.4009 141.865 48.4009C164.331 48.4479 184.223 60.3029 194.983 79.2119C196.352 78.6699 197.845 78.3719 199.409 78.3719C200.873 78.3719 202.268 78.6509 203.524 79.1389H203.594H203.663C204.527 79.5409 205.39 80.0389 206.215 80.5139L206.218 80.5159C206.391 80.6159 206.563 80.7149 206.732 80.8109C214.614 85.8289 219.706 94.5409 221.52 104.577C222.008 107.156 222.217 109.804 222.217 112.522V112.731V113.149C222.217 124.461 210.117 133.046 203.419 134.314Z" fill="white"/>
</mask>
<g mask="url(#mask1_1_1033)">
<path d="M203.418 134.314L199.401 113.091L181.848 116.414L181.818 134.278L203.418 134.314ZM203.314 197.129L181.714 197.093V197.111V197.129H203.314ZM160.976 206.119L180.667 197.242L161.51 154.749L141.473 196.834L160.976 206.119ZM122.752 206.119L142.254 196.834L122.018 154.331L102.995 197.39L122.752 206.119ZM80.3436 197.059H101.944V197.05V197.041L80.3436 197.059ZM80.2917 134.38L101.892 134.363L101.877 116.511L84.3421 113.164L80.2917 134.38ZM62.2086 104.716L83.4109 108.842L83.4549 108.616L83.4941 108.389L62.2086 104.716ZM76.9261 80.8108L66.2159 62.0538L65.609 62.3998L65.0257 62.7848L76.9261 80.8108ZM77.4431 80.5138L88.2268 99.2298L88.281 99.1988L88.3352 99.1668L77.4431 80.5138ZM77.4431 80.5138L66.6594 61.7988L66.6055 61.8298L66.5517 61.8608L77.4431 80.5138ZM79.9952 79.1388V57.5388H75.2068L70.8669 59.5618L79.9952 79.1388ZM80.1347 79.1388V100.739H84.1838L87.958 99.2718L80.1347 79.1388ZM88.7017 79.2228L80.7006 99.2858L98.1956 106.263L107.489 89.8808L88.7017 79.2228ZM141.864 48.4008L141.908 26.8008H141.886H141.864V48.4008ZM194.982 79.2118L176.209 89.8948L185.489 106.204L202.936 99.2948L194.982 79.2118ZM203.523 79.1388L195.7 99.2718L199.474 100.739H203.523V79.1388ZM203.662 79.1388L212.791 59.5618L208.451 57.5388H203.662V79.1388ZM206.214 80.5138L195.429 99.2288L195.436 99.2328L206.214 80.5138ZM206.217 80.5158L217.001 61.7998L216.994 61.7968L206.217 80.5158ZM206.731 80.8108L218.332 62.5908L217.893 62.3108L217.441 62.0528L206.731 80.8108ZM221.519 104.577L200.263 108.418L200.279 108.507L200.296 108.596L221.519 104.577ZM181.818 134.278C181.798 146.856 181.772 162.559 181.751 175.118C181.741 181.398 181.731 186.892 181.725 190.815C181.722 192.777 181.719 194.347 181.717 195.425C181.716 195.965 181.716 196.382 181.715 196.664C181.715 196.805 181.715 196.912 181.715 196.984C181.715 197.02 181.715 197.047 181.714 197.065C181.714 197.074 181.714 197.081 181.714 197.086C181.714 197.088 181.714 197.09 181.714 197.091C181.714 197.092 181.714 197.093 181.714 197.093C181.714 197.094 181.714 197.093 203.314 197.129C224.914 197.165 224.914 197.164 224.914 197.164V197.163C224.914 197.162 224.915 197.16 224.915 197.158C224.915 197.153 224.915 197.146 224.915 197.137C224.915 197.119 224.915 197.092 224.915 197.056C224.915 196.984 224.915 196.876 224.915 196.736C224.916 196.454 224.916 196.037 224.917 195.497C224.919 194.418 224.922 192.849 224.925 190.887C224.931 186.963 224.941 181.47 224.951 175.19C224.972 162.631 224.998 146.927 225.018 134.349L181.818 134.278ZM181.714 197.129C181.714 197.23 181.698 197.275 181.686 197.303C181.668 197.345 181.632 197.406 181.569 197.469C181.506 197.532 181.443 197.57 181.396 197.59C181.363 197.604 181.312 197.622 181.203 197.622V240.822C205.323 240.822 224.915 221.271 224.915 197.129H181.714ZM181.203 197.622C181.112 197.622 181.064 197.609 181.039 197.602C181.009 197.593 180.971 197.577 180.925 197.546C180.819 197.476 180.722 197.364 180.667 197.242L141.284 214.997C148.121 230.163 163.372 240.822 181.203 240.822V197.622ZM141.473 196.834C141.482 196.816 141.499 196.785 141.561 196.744C141.599 196.72 141.654 196.692 141.724 196.671C141.798 196.649 141.852 196.646 141.864 196.646V239.846C159.023 239.846 173.648 229.75 180.478 215.405L141.473 196.834ZM141.864 196.646C141.875 196.646 141.93 196.649 142.004 196.671C142.073 196.692 142.128 196.72 142.166 196.744C142.228 196.785 142.246 196.816 142.254 196.834L103.25 215.405C110.079 229.75 124.705 239.846 141.864 239.846V196.646ZM102.995 197.39C102.976 197.434 102.93 197.497 102.855 197.546C102.823 197.567 102.79 197.583 102.752 197.595C102.72 197.604 102.65 197.622 102.525 197.622V240.822C120.357 240.822 135.722 230.212 142.51 214.848L102.995 197.39ZM102.525 197.622C102.436 197.622 102.388 197.608 102.345 197.589C102.286 197.564 102.205 197.515 102.124 197.434C102.043 197.353 101.996 197.274 101.973 197.22C101.956 197.181 101.944 197.14 101.944 197.059H58.7435C58.7435 221.201 78.4053 240.822 102.525 240.822V197.622ZM80.3436 197.059C101.944 197.041 101.944 197.041 101.944 197.041C101.944 197.04 101.944 197.04 101.944 197.039C101.944 197.038 101.944 197.036 101.944 197.034C101.944 197.03 101.944 197.023 101.944 197.014C101.944 196.996 101.944 196.968 101.944 196.933C101.944 196.861 101.943 196.754 101.943 196.613C101.943 196.332 101.943 195.917 101.942 195.38C101.941 194.304 101.94 192.74 101.938 190.785C101.935 186.874 101.931 181.397 101.925 175.135C101.915 162.609 101.902 146.94 101.892 134.363L58.6917 134.398C58.702 146.975 58.715 162.645 58.7254 175.17C58.7305 181.433 58.7351 186.91 58.7383 190.821C58.74 192.776 58.7413 194.34 58.7422 195.415C58.7426 195.953 58.743 196.368 58.7432 196.649C58.7433 196.79 58.7434 196.897 58.7435 196.969C58.7435 197.004 58.7435 197.032 58.7435 197.05C58.7435 197.059 58.7435 197.066 58.7435 197.07C58.7435 197.072 58.7435 197.074 58.7435 197.075C58.7435 197.076 58.7435 197.076 58.7435 197.077C58.7435 197.077 58.7435 197.077 80.3436 197.059ZM84.3421 113.164C84.7128 113.234 84.98 113.306 85.1377 113.353C85.2986 113.401 85.3899 113.436 85.4127 113.445C85.4477 113.459 85.325 113.412 85.0774 113.274C84.8365 113.139 84.5442 112.954 84.2315 112.723C83.9198 112.493 83.6299 112.249 83.3776 112.005C83.1246 111.761 82.9452 111.554 82.8299 111.404C82.7143 111.253 82.694 111.2 82.7254 111.261C82.7586 111.326 82.8562 111.532 82.9462 111.878C83.0388 112.233 83.1112 112.692 83.1112 113.219H39.9111C39.9111 126.79 47.0687 137.01 53.3997 143.111C59.539 149.028 67.87 153.999 76.2413 155.597L84.3421 113.164ZM83.1112 113.219V112.801H39.9111V113.219H83.1112ZM83.1112 112.801V112.592H39.9111V112.801H83.1112ZM83.1112 112.592C83.1112 110.95 83.2404 109.719 83.4109 108.842L41.0063 100.59C40.2004 104.732 39.9111 108.798 39.9111 112.592H83.1112ZM83.4941 108.389C84.3943 103.173 86.7666 100.197 88.8265 98.8378L65.0257 62.7848C51.4614 71.7398 43.5105 86.0488 40.9231 101.044L83.4941 108.389ZM87.6363 99.5688C87.8499 99.4468 88.0598 99.3258 88.2268 99.2298L66.6594 61.7988C66.4779 61.9028 66.3429 61.9808 66.2159 62.0538L87.6363 99.5688ZM88.3352 99.1668L66.5517 61.8608L66.551 61.8618L88.3352 99.1668ZM88.2283 99.2288C88.6723 98.9728 88.8977 98.8438 89.0915 98.7378C89.2708 98.6398 89.2598 98.6518 89.1234 98.7148L70.8669 59.5618C69.0093 60.4278 67.3301 61.4118 66.6594 61.7988L88.2283 99.2288ZM79.9952 100.739H80.0649V57.5388H79.9952V100.739ZM80.0649 100.739H80.1347V57.5388H80.0649V100.739ZM87.958 99.2718C86.779 99.7298 85.5249 99.9718 84.25 99.9718V56.7718C80.0455 56.7718 76.0014 57.5708 72.3114 59.0048L87.958 99.2718ZM84.25 99.9718C83.0414 99.9718 81.8308 99.7368 80.7006 99.2858L96.7028 59.1588C92.82 57.6108 88.6053 56.7718 84.25 56.7718V99.9718ZM107.489 89.8808C114.424 77.6548 127.187 70.0008 141.864 70.0008V26.8008C111.547 26.8008 84.4786 42.8908 69.9142 68.5648L107.489 89.8808ZM141.819 70.0008C156.5 70.0318 169.263 77.6888 176.209 89.8948L213.755 68.5288C199.181 42.9158 172.16 26.8638 141.908 26.8008L141.819 70.0008ZM199.408 56.7718C195.08 56.7718 190.891 57.5998 187.028 59.1298L202.936 99.2948C201.811 99.7398 200.608 99.9718 199.408 99.9718V56.7718ZM211.346 59.0048C207.656 57.5708 203.612 56.7718 199.408 56.7718V99.9718C198.133 99.9718 196.879 99.7298 195.7 99.2718L211.346 59.0048ZM203.593 57.5388H203.523V100.739H203.593V57.5388ZM203.662 57.5388H203.593V100.739H203.662V57.5388ZM216.998 61.7988C216.327 61.4118 214.648 60.4278 212.791 59.5618L194.534 98.7148C194.398 98.6518 194.387 98.6398 194.566 98.7378C194.76 98.8438 194.985 98.9728 195.429 99.2288L216.998 61.7988ZM216.994 61.7968L216.991 61.7948L195.436 99.2328L195.439 99.2348L216.994 61.7968ZM217.441 62.0528C217.315 61.9818 217.181 61.9038 217.001 61.7998L195.432 99.2308C195.599 99.3268 195.808 99.4478 196.022 99.5688L217.441 62.0528ZM242.774 100.736C240.136 86.1328 232.359 71.5208 218.332 62.5908L195.131 99.0318C196.868 100.138 199.275 102.949 200.263 108.418L242.774 100.736ZM243.816 112.522C243.816 108.703 243.523 104.684 242.742 100.559L200.296 108.596C200.491 109.627 200.616 110.906 200.616 112.522H243.816ZM243.816 112.731V112.522H200.616V112.731H243.816ZM243.816 113.149V112.731H200.616V113.149H243.816ZM207.436 155.537C215.824 153.949 224.168 148.972 230.31 143.058C236.647 136.957 243.816 126.732 243.816 113.149H200.616C200.616 112.621 200.689 112.163 200.781 111.807C200.871 111.461 200.969 111.255 201.002 111.191C201.033 111.13 201.013 111.184 200.897 111.335C200.781 111.486 200.601 111.694 200.347 111.938C200.094 112.182 199.804 112.427 199.492 112.657C199.179 112.887 198.887 113.072 198.646 113.206C198.399 113.344 198.278 113.39 198.316 113.375C198.34 113.366 198.433 113.33 198.596 113.282C198.756 113.234 199.026 113.162 199.401 113.091L207.436 155.537Z" fill="white"/>
</g>
</g>
<path d="M187.256 89.7269C187.604 83.3849 192.831 78.3669 199.243 78.3669C200.707 78.3669 202.101 78.6449 203.355 79.1329H203.425C203.425 79.1329 203.425 79.1329 203.495 79.1329C204.54 79.6209 205.585 80.2479 206.561 80.8059C214.437 85.8239 219.524 94.5359 221.336 104.572C221.824 107.15 222.033 109.799 222.033 112.517V112.726C222.033 112.865 222.033 113.005 222.033 113.144C222.033 125.41 207.816 134.47 201.683 134.47C195.062 134.47 197.849 117.465 197.849 110.844C197.849 110.635 197.849 110.496 197.849 110.287C192.413 104.781 187.953 97.3929 187.395 91.5389C187.395 91.3999 187.395 91.2599 187.326 91.1209C187.326 90.8419 187.326 90.5629 187.326 90.2839C187.256 90.2149 187.256 90.0059 187.256 89.7269Z" fill="#F47171"/>
<path d="M96.1642 89.7269C95.8157 83.3849 90.5887 78.3669 84.1768 78.3669C82.7132 78.3669 81.3194 78.6449 80.0649 79.1329H79.9952C79.9952 79.1329 79.9952 79.1329 79.9255 79.1329C78.8801 79.6209 77.8347 80.2479 76.8589 80.8059C69.0532 85.9629 63.8958 94.6049 62.1535 104.711C61.6656 107.22 61.4565 109.868 61.4565 112.587V112.796C61.4565 112.935 61.4565 113.074 61.4565 113.214C61.4565 125.48 75.6741 134.54 81.8072 134.54C88.4282 134.54 85.6404 117.535 85.6404 110.914C85.6404 110.705 85.6404 110.565 85.6404 110.356C91.0765 104.85 95.537 97.4629 96.0945 91.6089C96.0945 91.4689 96.0945 91.3299 96.1642 91.1899C96.1642 90.9119 96.1642 90.6329 96.1642 90.3539C96.1642 90.2149 96.1642 90.0059 96.1642 89.7269Z" fill="#F47171"/>
<path d="M203.287 112.238C203.287 113.283 203.217 197.125 203.217 197.125H203.147C203.147 209.322 193.251 219.218 181.054 219.218C172.064 219.218 164.328 213.852 160.843 206.116C157.428 213.294 150.18 218.243 141.747 218.243C133.314 218.243 126.066 213.294 122.65 206.116C119.235 213.852 111.499 219.218 102.44 219.218C90.2432 219.218 80.277 209.252 80.277 197.056C80.277 197.056 80.2073 113.213 80.2073 112.168C80.2073 75.021 108.084 48.3979 141.747 48.3979C175.409 48.4679 203.287 75.091 203.287 112.238Z" fill="#F47171"/>
<path d="M203.287 112.238C203.287 113.283 203.217 197.125 203.217 197.125H203.147C203.147 209.322 193.251 219.218 181.054 219.218C172.064 219.218 164.328 213.852 160.843 206.116C157.428 213.294 150.18 218.243 141.747 218.243C133.314 218.243 126.066 213.294 122.65 206.116C119.235 213.852 111.499 219.218 102.44 219.218C90.2432 219.218 80.277 209.252 80.277 197.056C80.277 197.056 80.2073 113.213 80.2073 112.168C80.2073 75.021 108.084 48.3979 141.747 48.3979C175.409 48.4679 203.287 75.091 203.287 112.238Z" fill="#F47171"/>
<path opacity="0.1" d="M203.214 173.084C203.144 185.281 193.246 195.178 181.05 195.178C175.405 195.178 170.248 193.017 166.345 189.532C163.209 186.675 158.54 186.605 155.264 189.323C151.57 192.32 146.901 194.202 141.813 194.202C136.725 194.202 131.986 192.39 128.362 189.323C125.087 186.605 120.417 186.675 117.281 189.532C113.378 193.017 108.221 195.178 102.575 195.178C90.3783 195.178 80.4818 185.281 80.4818 173.084L80.2727 182.354V197.059C80.2727 209.256 90.1693 219.152 102.366 219.152C111.357 219.152 119.093 213.786 122.578 206.05C125.993 213.228 133.241 218.177 141.674 218.177C150.106 218.177 157.425 213.228 160.77 206.05C164.185 213.786 171.991 219.152 180.981 219.152C193.178 219.152 203.074 209.256 203.074 197.059L203.214 173.084Z" fill="#4B194E"/>
<path d="M162.304 112.918C169.425 112.918 175.197 107.145 175.197 100.024C175.197 92.9029 169.425 87.1309 162.304 87.1309C155.183 87.1309 149.411 92.9029 149.411 100.024C149.411 107.145 155.183 112.918 162.304 112.918Z" fill="white"/>
<path d="M162.302 108.177C166.805 108.177 170.456 104.526 170.456 100.022C170.456 95.5189 166.805 91.8679 162.302 91.8679C157.798 91.8679 154.148 95.5189 154.148 100.022C154.148 104.526 157.798 108.177 162.302 108.177Z" fill="#491249"/>
<path d="M121.113 112.918C128.234 112.918 134.007 107.145 134.007 100.024C134.007 92.9029 128.234 87.1309 121.113 87.1309C113.992 87.1309 108.22 92.9029 108.22 100.024C108.22 107.145 113.992 112.918 121.113 112.918Z" fill="white"/>
<path d="M121.112 108.177C125.615 108.177 129.266 104.526 129.266 100.022C129.266 95.5189 125.615 91.8679 121.112 91.8679C116.609 91.8679 112.958 95.5189 112.958 100.022C112.958 104.526 116.609 108.177 121.112 108.177Z" fill="#491249"/>
<path d="M138.816 92.44C140.814 86.819 135.672 79.859 127.331 76.894C118.989 73.929 110.608 76.082 108.61 81.704C106.612 87.325 111.754 94.285 120.095 97.25C128.436 100.215 136.818 98.062 138.816 92.44Z" fill="#F47171"/>
<path d="M160.821 97.263C169.162 94.299 174.304 87.3379 172.306 81.7169C170.308 76.0959 161.927 73.9419 153.585 76.9069C145.244 79.8719 140.102 86.8319 142.1 92.4539C144.098 98.0749 152.48 100.228 160.821 97.263Z" fill="#F47171"/>
<path d="M141.744 110.355C142.937 110.355 143.906 109.388 143.906 108.195C143.906 107.001 142.937 106.034 141.744 106.034C140.551 106.034 139.583 107.001 139.583 108.195C139.583 109.388 140.551 110.355 141.744 110.355Z" fill="#491249"/>
<path d="M151.5 118.785C150.663 117.74 149.827 116.555 148.154 116.555C144.948 116.555 144.948 120.597 141.743 120.597C138.537 120.597 138.537 116.555 135.331 116.555C133.658 116.555 132.822 117.67 131.985 118.785" stroke="#491249" stroke-width="3.14641" stroke-miterlimit="10" stroke-linecap="round" stroke-linejoin="round"/>
<path opacity="0.1" d="M193.25 83.9451C189.835 85.8961 187.465 89.5201 187.256 93.7021C187.256 93.9111 187.256 94.1201 187.256 94.3291C187.256 94.6081 187.256 94.8871 187.256 95.1661C187.256 95.3051 187.256 95.4441 187.326 95.5841C187.883 101.438 192.344 108.826 197.78 114.331" stroke="#4B194E" stroke-width="7.85934" stroke-miterlimit="10" stroke-linecap="round" stroke-linejoin="round"/>
<path opacity="0.1" d="M90.17 83.9451C93.585 85.8961 95.9546 89.5201 96.1637 93.7021C96.1637 93.9111 96.1637 94.1201 96.1637 94.3291C96.1637 94.6081 96.1637 94.8871 96.1637 95.1661C96.1637 95.3051 96.1637 95.4441 96.094 95.5841C95.5364 101.438 91.076 108.826 85.6399 114.331" stroke="#4B194E" stroke-width="7.85934" stroke-miterlimit="10" stroke-linecap="round" stroke-linejoin="round"/>
<path d="M60.8775 28.1839L50.652 38.4419C48.8319 40.2339 49.6193 43.3009 52.0307 44.1029L69.3634 49.807C70.8201 50.312 72.1816 48.9179 71.7951 47.4849L66.6262 29.6819C65.9167 27.1369 62.7322 26.3089 60.8775 28.1839Z" fill="#FF9F99"/>
<path d="M229.068 51.6639L217.805 35.9439C215.808 33.1839 211.611 33.4979 210.006 36.4459L198.738 57.9149C197.8 59.7279 199.209 61.8679 201.231 61.6449L225.89 58.8769C229.363 58.4689 231.153 54.4469 229.068 51.6639Z" fill="#FF9F99"/>
<path d="M182.264 35.551L177.162 34.919C175.942 34.751 174.69 35.324 174.043 36.407L171.365 40.867C170.027 43.098 166.754 42.86 165.737 40.447L163.767 35.665C163.323 34.503 162.154 33.703 160.909 33.709L155.735 33.599C153.18 33.567 151.712 30.559 153.31 28.506L156.507 24.401C157.284 23.407 157.367 22.034 156.769 20.957L154.273 16.3868C153.057 14.1239 154.926 11.3984 157.432 11.7794L162.534 12.4116C163.755 12.5798 165.007 12.0066 165.654 10.9239L168.331 6.46306C169.67 4.23266 172.942 4.47066 173.96 6.88366L175.93 11.6654C176.374 12.8275 177.543 13.6279 178.788 13.6219L183.962 13.7313C186.516 13.7637 187.985 16.7717 186.386 18.8242L183.189 22.929C182.412 23.923 182.329 25.297 182.927 26.373L185.404 30.834C186.684 33.142 184.815 35.867 182.264 35.551Z" fill="#F47171"/>
</g>
</svg>
